# xmcd
#
# Track frame offsets:
#	150
#	29893
#	51969
#	69473
#	94445
#	117913
#	138803
#	163114
#	183229
#	204235
#
# Disc length: 2992 seconds
#
# Revision: 1
# Processed by: cddbd v1.5.2PL0 Copyright (c) Steve Scherf et al.
# Submitted via: audiograbber 1.83.01
#
DISCID=8f0bae0a
DTITLE=City - Rock aus Deutschland Ost - 11 - City
DYEAR=1900
DGENRE=DDR
TTITLE0=Am Fenster
TTITLE1=Der King vom Prenzlauer Berg
TTITLE2=Nachts um halb eins
TTITLE3=Meister aller Klassen
TTITLE4=Aus der Ferne
TTITLE5=Sag mir wo die Blumen sind
TTITLE6=Unter der Haut
TTITLE7=Schattenbild
TTITLE8=Pfefferminz4himmel
TTITLE9=Casablanca
EXTD=
EXTT0=
EXTT1=
EXTT2=
EXTT3=
EXTT4=
EXTT5=
EXTT6=
EXTT7=
EXTT8=
EXTT9=
PLAYORDER=
